<?xml version="1.0" encoding="UTF-8" standalone="no"?><!DOCTYPE svg PUBLIC "-//W3C//DTD SVG 1.1//EN"
		"http://www.w3.org/Graphics/SVG/1.1/DTD/svg11.dtd">
<svg width="100%"
		height="100%"
		viewBox="0 0 2250 2250"
		version="1.1"
		xmlns="http://www.w3.org/2000/svg"
		xml:space="preserve"
		style="fill-rule:evenodd;clip-rule:evenodd;stroke-linejoin:round;stroke-miterlimit:2;"><g><path d="M259.994,1813.05l153.557,-1356.66l219.201,-0c0,-0 148.471,1116.98 159.481,1161.4c12.511,-49.355 202.327,-1180.83 202.327,-1180.83l195.929,0l122.743,1376.09l-133.407,-0l-99.338,-1154.92l-190.426,1154.92l-208.92,-0l-164.735,-1154.92l-116.033,1154.92l-140.379,-0Z" style="fill:#fff;fill-rule:nonzero;"/><path
		d="M1539.17,1813.05l-119.718,-1376.09l145.633,0l119.719,1216l305.204,-0l0,160.097l-450.838,-0Z"
		style="fill:#fff;fill-rule:nonzero;" /></g>
	<path d="M1470.07,505.337l-48.517,-68.384l-72.604,0l-169.121,1376.09l133.407,-0l125.53,-1190.81l31.305,-116.901Z"
			style="fill:#fff;" />
	<path d="M1585.39,1291.19l-0,-156.469l-662.25,-0l-0,156.469l662.25,-0Z" style="fill:#fff;" /></svg>
